<svg xmlns="http://www.w3.org/2000/svg" xmlns:xlink="http://www.w3.org/1999/xlink" width="16" height="19" viewBox="0 0 16 19">
    <defs>
        <path id="a" d="M15.17.076H.004v18.562h15.164V.076z"/>
    </defs>
    <g fill="none" fill-rule="evenodd" opacity=".6">
        <mask id="b" fill="#fff">
            <use xlink:href="#a"/>
        </mask>
        <path fill="#FFF" d="M.783 6.9c-1.57 2.723-.572 6.855 1.163 9.36.867 1.254 1.744 2.378 2.945 2.378l.068-.001c.565-.023.973-.196 1.367-.364.443-.189.9-.384 1.619-.384.683 0 1.119.189 1.54.371.416.18.844.366 1.477.354 1.353-.025 2.183-1.238 2.916-2.31a10.23 10.23 0 0 0 1.278-2.617l.005-.016a.152.152 0 0 0-.091-.191c-.239-.098-2.33-1.025-2.35-3.552-.021-2.053 1.567-3.14 1.886-3.338l.015-.009a.151.151 0 0 0 .043-.214c-1.097-1.604-2.777-1.846-3.453-1.875-.099-.01-.2-.015-.302-.015-.794 0-1.555.3-2.167.542-.422.166-.787.31-1.038.31-.283 0-.65-.146-1.074-.314-.568-.226-1.211-.48-1.893-.48H4.69c-1.584.023-3.081.93-3.906 2.365z" mask="url(#b)"/>
        <path fill="#FFF" d="M11.212.076c-.96.04-2.11.63-2.798 1.435-.585.678-1.156 1.807-1.005 2.945.01.071.067.126.139.131.064.005.13.008.196.008.939 0 1.95-.519 2.641-1.354.728-.883 1.096-2.015.984-3.03a.153.153 0 0 0-.157-.135z" mask="url(#b)"/>
    </g>
</svg>
