<svg xmlns="http://www.w3.org/2000/svg" width="36" height="46" viewBox="0 0 36 46">
    <g fill="#fff" fill-rule="evenodd">
        <path d="M34.457 43.92H1.819V1.929H9.24v1.729H4.31a.763.763 0 0 0-.763.762v37.417c0 .422.342.763.763.763h19.929c.025 0 .05-.001.075-.004.011 0 .022-.003.034-.005l.04-.006c.012-.002.025-.006.038-.01l.034-.008.036-.013.034-.012.034-.016.034-.016.03-.019c.012-.006.023-.012.034-.02l.033-.024.027-.02a.74.74 0 0 0 .052-.047l.004-.003 7.727-7.728.003-.003a.774.774 0 0 0 .048-.053l.02-.027.024-.033.02-.033.018-.03.017-.036.015-.032.013-.035.013-.036.009-.035.009-.037.006-.041.005-.033a.767.767 0 0 0 .003-.075V4.419a.763.763 0 0 0-.762-.762h-4.931V1.928h7.422v41.993zm-4.332-9.048L25 39.995v-5.123h5.124zm1.078-1.526H24.24a.763.763 0 0 0-.763.763v6.965H5.072V5.182h26.131v28.164zM1.056.403a.763.763 0 0 0-.762.763v43.517c0 .422.341.763.762.763H35.22a.763.763 0 0 0 .762-.763V1.166a.763.763 0 0 0-.762-.763H1.056z"/>
        <path d="M18.138 28.873c-4.513 0-8.185-3.672-8.185-8.185 0-4.514 3.672-8.185 8.185-8.185s8.185 3.671 8.185 8.185c0 4.513-3.672 8.185-8.185 8.185zm0-17.896c-5.354 0-9.71 4.356-9.71 9.71 0 5.355 4.356 9.71 9.71 9.71 5.354 0 9.71-4.355 9.71-9.71 0-5.354-4.356-9.71-9.71-9.71z"/>
        <path d="M22.744 16.691a.763.763 0 0 0-1.078 0l-6.578 6.579-1.902-1.901a.763.763 0 0 0-1.078 1.078l2.44 2.44a.76.76 0 0 0 1.079 0l7.117-7.117a.763.763 0 0 0 0-1.079"/>
    </g>
</svg>
