<svg xmlns="http://www.w3.org/2000/svg" width="45" height="42" viewBox="0 0 45 42">
    <g fill="#fff" fill-rule="evenodd">
        <path d="M7.347 17.764h9.55a.734.734 0 1 0 0-1.468h-9.55a.734.734 0 0 0 0 1.468zM26.45 20.705H7.348a.734.734 0 1 0 0 1.467h19.104a.734.734 0 0 0 0-1.467zM26.45 25.11H7.348a.736.736 0 0 0-.735.735c0 .406.33.736.735.736h19.104a.736.736 0 0 0 0-1.47z"/>
        <path d="M39.728.917L14.644.866a4.363 4.363 0 0 0-4.359 4.355v3.767L4.355 9A4.363 4.363 0 0 0 0 13.358v15.53a4.363 4.363 0 0 0 4.355 4.359h4.463v7.347a.738.738 0 0 0 .731.736.745.745 0 0 0 .546-.241l7.129-7.846 12.215-.05a4.36 4.36 0 0 0 4.359-4.355v-.083l3.863 4.251c.144.154.341.24.546.24a.731.731 0 0 0 .731-.736v-7.346h.79c2.4 0 4.355-1.955 4.355-4.355V5.275A4.365 4.365 0 0 0 39.728.917zm-7.401 27.92a2.89 2.89 0 0 1-2.888 2.889l-12.542.05a.732.732 0 0 0-.541.24l-6.07 6.677V32.51a.734.734 0 0 0-.737-.736H4.355a2.89 2.89 0 0 1-2.884-2.887v-15.53A2.89 2.89 0 0 1 4.36 10.47l6.662-.014 18.418-.04a2.89 2.89 0 0 1 2.888 2.888v15.534zm10.285-8.032a2.89 2.89 0 0 1-2.884 2.889h-1.521c-.41 0-.736.33-.736.734v6.182l-3.673-4.04V13.304c0-2.4-1.955-4.355-4.359-4.355l-17.683.036V5.22a2.89 2.89 0 0 1 2.884-2.887l25.084.053h.004a2.891 2.891 0 0 1 2.887 2.888v15.53h-.003z"/>
    </g>
</svg>
