<svg xmlns="http://www.w3.org/2000/svg" xmlns:xlink="http://www.w3.org/1999/xlink" width="59" height="59" viewBox="0 0 59 59">
    <defs>
        <path id="a" d="M29.386.812H.14v57.385h58.492V.812z"/>
    </defs>
    <g fill="none" fill-rule="evenodd">
        <g>
            <mask id="b" fill="#fff">
                <use xlink:href="#a"/>
            </mask>
            <path fill="#CF1D2B" d="M58.632 54.561l-5.803-3.638v2.455H4.81V6.613h2.465L3.636.813 0 6.612h2.465v49.121H52.83v2.463z" mask="url(#b)"/>
        </g>
        <path fill="#CF1D2B" d="M7.12 43.285l1.009.61 3.347-5.52h4.155v-.528l4.337 4.065v3.883h5.284v-5.292h-1.183l3.864-14.031h.229l3.526 10.356h-1.145v5.293h5.293v-3.929l3.746-2.735v.272h3.81l3.227 5.801h-.5v5.291h5.283V41.53H49.61l1.974-19.833h2.318v-5.29H48.62v5.29h1.781L48.44 41.53h-.475l-3.217-5.8h.126v-5.294h-5.291v3.566l-3.874 2.826h-2.774l-3.536-10.356h1.145V21.18h-5.291v5.29h1.464L22.85 40.504h-2.663L15.63 36.23v-3.147h-5.284v4.893z"/>
    </g>
</svg>
