<svg xmlns="http://www.w3.org/2000/svg" xmlns:xlink="http://www.w3.org/1999/xlink" width="70" height="67" viewBox="0 0 70 67">
    <defs>
        <path id="a" d="M31.698.083H.008v66.425h63.38V.083z"/>
    </defs>
    <g fill="none" fill-rule="evenodd">
        <g transform="translate(.703 .493)">
            <mask id="b" fill="#fff">
                <use xlink:href="#a"/>
            </mask>
            <path fill="#fff" d="M54.137 48.005a9.251 9.251 0 1 0 0 18.503 9.251 9.251 0 0 0 0-18.503zm0 16.448a7.197 7.197 0 1 1 0-14.394 7.197 7.197 0 0 1 0 14.394z" mask="url(#b)"/>
            <path stroke="#fff" d="M.5.583v-.5l-.5.5h.5zm12.985 0h.5l-.5-.5v.5zm0 27.297v.5l.5-.5h-.5zM.5 27.88H0l.5.5v-.5zm0 0V.583h12.985V27.88H.5zM7.002 2.514a4.27 4.27 0 0 1 0 8.539 4.27 4.27 0 0 1 0-8.54z" mask="url(#b)"/>
        </g>
        <path stroke="#fff" d="M52.96 39.382s-.378 2.237 1.22 2.733c0 0 1.701.318 2.137-1.215l.638-9.368c.067-.938-.44-1.677-.44-1.677a9.36 9.36 0 0 0-.644-.815 51.282 51.282 0 0 0-3.153-1.411c.15.194.298.4.438.612 0 0 .616 1.05.504 2.07l-.7 9.07zM59.571 44.02s.583.106 1.245-.095c.218-2.627.681-7.79 1.12-10.149 0 0 .358-1.975-1.829-3.212 0 0-1.1-.667-3.009-1.573.291.318.566.65.796.98 0 0 .534.763.464 1.732l-.685 9.86s-.016 2.156 1.898 2.458z"/>
        <path stroke="#fff" d="M18.888 4.615v14.563h5.514l.133.296a60.274 60.274 0 0 0 4.983 8.992 58.987 58.987 0 0 0 6.91 8.51 44.105 44.105 0 0 0 2.27 2.159c.408.359.697.598.85.716a121.802 121.802 0 0 1 1.86 1.496 239.349 239.349 0 0 1 4.305 3.608c.962.873 1.732 1.418 2.325 1.7.335.16.523.199.584.192l-.039.007.106-.011c.62 0 .985-.312 1.203-.894.139-.37.185-.76.182-1.03v-.012c0-1.063-.464-2.419-1.323-3.985-.562-1.025-1.278-2.113-2.112-3.236a46.92 46.92 0 0 0-3.51-4.18 2.98 2.98 0 0 1-.495-.788c-.36-.851-.264-1.739.103-2.577.121-.276.244-.486.351-.636.143-.178.288-.352.436-.522a15.762 15.762 0 0 1 2.993-2.676c.36-.246.694-.45.996-.616.185-.101.32-.169.36-.184.393-.22.91-.315 1.53-.324a8.76 8.76 0 0 1 1.314.09c.245.034.435.068.54.09 2.209.42 4.362 1.103 6.416 1.977a33.34 33.34 0 0 1 3.397 1.672c.354.2.665.387.932.555.162.101.275.175.32.207.552.348.945.844 1.199 1.44.277.65.359 1.31.338 1.847-.002.04-.002.04-.008.1a48.411 48.411 0 0 0-.28 2.04c-.064.539-.132 1.138-.202 1.786a276.532 276.532 0 0 0-.47 4.753c-.12 1.532.174 2.47.705 2.975.244.232.475.323.598.336 1.87.217 3.237-2.344 4.03-6.845a46.41 46.41 0 0 0 .57-4.946 52.214 52.214 0 0 0 .098-2.24c0-2.32-.78-4.404-2.087-6.22a12.347 12.347 0 0 0-1.441-1.67 7.608 7.608 0 0 0-.635-.56l-.036-.03C58.204 16.62 51.72 12.15 45.559 8.933c-2.153-1.125-4.112-2.013-5.837-2.69a35.134 35.134 0 0 0-1.583-.58 14.15 14.15 0 0 0-.541-.173 17.398 17.398 0 0 0-1.805-.411 32.086 32.086 0 0 0-3.226-.389 36.103 36.103 0 0 0-1.454-.076H18.888z"/>
        <path fill="#fff" d="M57.727 57.79c-.3-.195-.639-.343-1.02-.445-.38-.101-.764-.183-1.153-.246v-2.056c.822.036 1.708.21 2.661.518v-1.834a7.826 7.826 0 0 0-1.284-.32 12.642 12.642 0 0 0-1.376-.153v-.927h-1.474v.955c-.5.056-.95.154-1.348.297a3.286 3.286 0 0 0-1.013.56 2.356 2.356 0 0 0-.64.825 2.547 2.547 0 0 0-.223 1.089c0 .5.096.909.288 1.224.19.314.44.568.746.76.306.191.65.335 1.033.43.383.096.77.172 1.158.226v2.031a10.911 10.911 0 0 1-.87-.051 8.284 8.284 0 0 1-1.465-.279c-.227-.064-.462-.14-.704-.227v1.817c.353.161.796.284 1.33.374.535.091 1.105.145 1.71.163v.908h1.473v-.955c1.02-.11 1.806-.392 2.359-.842.552-.45.829-1.073.829-1.864 0-.494-.094-.898-.282-1.214a2.344 2.344 0 0 0-.735-.764zm-3.646-.922c-.402-.074-.7-.18-.9-.316-.197-.135-.295-.334-.295-.592 0-.228.086-.419.259-.57.173-.152.486-.252.935-.301v1.779zm1.473 3.79v-1.742c.39.069.68.169.867.302.189.132.282.328.282.587 0 .47-.383.754-1.149.854z"/>
    </g>
</svg>
