<svg xmlns="http://www.w3.org/2000/svg" xmlns:xlink="http://www.w3.org/1999/xlink" width="68" height="67" viewBox="0 0 68 67">
    <defs>
        <path id="a" d="M31.698.083H.008v66.425h63.38V.083z"/>
    </defs>
    <g fill="none" fill-rule="evenodd">
        <g transform="translate(-1.297 .493)">
            <mask id="b" fill="#fff">
                <use xlink:href="#a"/>
            </mask>
            <path fill="#fff" d="M54.137 48.005a9.251 9.251 0 1 0 0 18.503 9.251 9.251 0 0 0 0-18.503zm0 16.448a7.197 7.197 0 1 1 0-14.394 7.197 7.197 0 0 1 0 14.394z" mask="url(#b)"/>
            <path stroke="#fff" stroke-width="2" d="M3 1.083v-1l-1 1h1zm11.985 0h1l-1-1v1zm0 26.297v1l1-1h-1zM3 27.38H2l1 1v-1zm0 0V1.083h11.985V27.38H3zM9.004 4.913a2.872 2.872 0 1 1-.002 5.744 2.872 2.872 0 0 1 .002-5.744z" mask="url(#b)"/>
        </g>
        <path stroke="#fff" stroke-width="2" d="M51.96 38.278s-.378 2.321 1.22 2.836c0 0 1.701.33 2.137-1.26l.638-9.719c.067-.974-.44-1.74-.44-1.74a9.667 9.667 0 0 0-.644-.846c-.867-.44-1.93-.946-3.153-1.464.15.202.298.415.438.635 0 0 .616 1.089.504 2.149l-.7 9.41zM58.571 43.02s.583.106 1.245-.095c.218-2.627.681-7.79 1.12-10.149 0 0 .358-1.975-1.829-3.212 0 0-1.1-.667-3.009-1.573.291.318.566.65.796.98 0 0 .534.763.464 1.732l-.685 9.86s-.016 2.156 1.898 2.458z"/>
        <path stroke="#fff" stroke-width="2" d="M17.388 5.115v13.563h5.339l.264.592a59.775 59.775 0 0 0 4.942 8.917 58.49 58.49 0 0 0 6.851 8.439c.814.827 1.57 1.539 2.245 2.133.4.353.681.585.828.7a122.292 122.292 0 0 1 1.868 1.5 239.833 239.833 0 0 1 4.325 3.626c.927.843 1.659 1.36 2.203 1.619.257.122.354.142.317.146-.041.005-.041.005-.092.015l.21-.022c.39 0 .585-.168.736-.57.113-.3.152-.634.15-.848v-.018c0-.963-.44-2.245-1.262-3.745-.55-1.003-1.253-2.072-2.074-3.179a46.427 46.427 0 0 0-3.16-3.801c-.14-.151-.239-.256-.326-.348a3.48 3.48 0 0 1-.579-.921c-.422-.998-.311-2.02.106-2.973.136-.31.276-.548.419-.747.147-.184.296-.363.449-.538 1.685-1.937 3.383-3.095 4.482-3.585.48-.268 1.071-.377 1.767-.387.451-.006.922.03 1.39.095.256.035.459.072.564.094 2.247.427 4.433 1.121 6.519 2.008 1.27.54 2.426 1.118 3.448 1.697.36.204.678.394.951.566.168.105.285.182.322.208.643.407 1.099.983 1.39 1.668.312.729.402 1.456.379 2.061-.002.048-.002.048-.015.164-.08.485-.174 1.168-.276 2.016-.065.537-.132 1.135-.202 1.781a276.046 276.046 0 0 0-.468 4.738c-.11 1.392.138 2.18.551 2.574.155.148.285.199.311.202 1.47.17 2.732-2.193 3.479-6.436.272-1.55.456-3.22.565-4.892a51.716 51.716 0 0 0 .096-2.207c0-2.207-.744-4.191-1.993-5.928a11.85 11.85 0 0 0-1.382-1.603 7.17 7.17 0 0 0-.589-.52l-.072-.06C55.9 17.019 49.453 12.575 43.328 9.377 41.19 8.26 39.248 7.38 37.539 6.71a34.639 34.639 0 0 0-1.56-.572 13.717 13.717 0 0 0-.52-.167 16.91 16.91 0 0 0-1.753-.399 31.6 31.6 0 0 0-3.176-.382 35.605 35.605 0 0 0-1.417-.075H17.388z"/>
        <path fill="#fff" d="M55.727 57.79c-.3-.195-.639-.343-1.02-.445-.38-.101-.764-.183-1.153-.246v-2.056c.822.036 1.708.21 2.661.518v-1.834a7.826 7.826 0 0 0-1.284-.32 12.642 12.642 0 0 0-1.376-.153v-.927h-1.474v.955c-.5.056-.95.154-1.348.297a3.286 3.286 0 0 0-1.013.56 2.356 2.356 0 0 0-.64.825 2.547 2.547 0 0 0-.223 1.089c0 .5.096.909.288 1.224.19.314.44.568.746.76.306.191.65.335 1.033.43.383.096.77.172 1.158.226v2.031a10.911 10.911 0 0 1-.87-.051 8.284 8.284 0 0 1-1.465-.279c-.227-.064-.462-.14-.704-.227v1.817c.353.161.796.284 1.33.374.535.091 1.105.145 1.71.163v.908h1.473v-.955c1.02-.11 1.806-.392 2.359-.842.552-.45.829-1.073.829-1.864 0-.494-.094-.898-.282-1.214a2.344 2.344 0 0 0-.735-.764zm-3.646-.922c-.402-.074-.7-.18-.9-.316-.197-.135-.295-.334-.295-.592 0-.228.086-.419.259-.57.173-.152.486-.252.935-.301v1.779zm1.473 3.79v-1.742c.39.069.68.169.867.302.189.132.282.328.282.587 0 .47-.383.754-1.149.854z"/>
    </g>
</svg>
