<svg xmlns="http://www.w3.org/2000/svg" xmlns:xlink="http://www.w3.org/1999/xlink" width="67" height="67" viewBox="0 0 67 67">
    <defs>
        <path id="a" d="M.008 66.186V0h66.178v66.186z"/>
    </defs>
    <g fill="none" fill-rule="evenodd">
        <mask id="b" fill="#fff">
            <use xlink:href="#a"/>
        </mask>
        <path fill="#fff" d="M39.988 35.85H37.23a1.378 1.378 0 1 0 0 2.759h1.379a1.378 1.378 0 1 0 2.757 0v-.254c1.602-.571 2.758-2.088 2.758-3.883a4.141 4.141 0 0 0-4.136-4.137 1.38 1.38 0 0 1 0-2.757h2.757a1.378 1.378 0 1 0 0-2.758h-1.379a1.378 1.378 0 1 0-2.757 0v.254c-1.602.571-2.758 2.087-2.758 3.883a4.141 4.141 0 0 0 4.137 4.136 1.38 1.38 0 0 1 0 2.758" mask="url(#b)"/>
        <path fill="#fff" d="M59.653 54.719c-6.625 3.257-17.716 8.71-22.423 8.71-5.016 0-18.187-5.873-22.838-8.135-.006-.003-.012-.002-.017-.004l1.623-11.363c1.003-.314 4.074-1.182 7.443-1.182 2.036 0 3.607.758 5.596 1.717 1.786.862 3.811 1.838 6.54 2.393 5.991 1.215 8.547 2.46 8.547 4.164 0 .336-.102.544-.365.739-.872.656-4.297 1.757-17.168-2.062a1.38 1.38 0 0 0-.784 2.645c6.35 1.882 11.207 2.821 14.65 2.821 2.244 0 3.887-.399 4.952-1.194.092-.069.16-.153.243-.227.086-.01.17.001.256-.025 2.439-.75 9.347-2.697 12.005-2.697 2.249 0 4.615.684 5.312 1.966-.963.452-2.181 1.051-3.572 1.734zm-49.635 3.194h-7.26V38.912l9.58 1.916a1.38 1.38 0 0 1 1.095 1.547l-2.05 14.354a1.384 1.384 0 0 1-1.365 1.184zm16.586-22.234c0-14.126 3.503-19.132 13.384-19.132 9.88 0 13.383 5.006 13.383 19.132 0 .265.077.525.22.747.043.067 4.322 6.761 4.322 11.318 0 .177-.035.349-.102.521-2.727.035-8.205 1.505-11 2.308-.376-3.957-5.446-5.358-10.685-6.422-2.392-.485-4.17-1.342-5.892-2.172-1.86-.898-3.656-1.711-5.86-1.909a40.65 40.65 0 0 1 2.01-3.645c.143-.223.22-.482.22-.746zm7.455-24.912c-.72-1.155-1.704-2.736-1.64-3.548.41-.381 1.696-.505 2.465-.46.641.077 1.228-.361 1.415-.973.244-.785 1.258-3.028 2.687-3.028 1.002 0 1.259.292 1.686.775.432.49 1.085 1.227 2.318 1.227 1.536 0 2.034-1.177 2.22-1.62.044-.1.109-.254.137-.287.001 0 .147-.095.648-.095.444 0 1.625 0 1.625 1.624 0 1.019-1.07 3.47-1.931 5.44-.682 1.558-1.32 3.042-1.698 4.292a24.122 24.122 0 0 0-4.003-.325c-1.503 0-2.854.125-4.1.338-.422-1.068-1.101-2.19-1.83-3.36zm26.471 37.76c.051-.26.14-.514.14-.783 0-4.766-3.596-10.925-4.542-12.463-.045-10.367-1.886-17.925-9.462-20.51.345-1.08.97-2.519 1.55-3.845 1.111-2.545 2.162-4.949 2.162-6.544C50.378 2.2 49.023 0 45.995 0c-2.028 0-2.782.957-3.193 1.779l-.063-.073C42.174 1.068 41.23 0 38.986 0c-2.525 0-4.164 2.199-4.958 4-1.025.052-2.514.296-3.485 1.198a2.917 2.917 0 0 0-.946 2.188c0 1.433 1.03 3.088 2.12 4.838.542.87 1.11 1.804 1.473 2.593-7.472 2.625-9.298 10.153-9.342 20.466a44.425 44.425 0 0 0-2.516 4.808 30.428 30.428 0 0 0-5.296.953 4.129 4.129 0 0 0-3.156-2.92L1.65 35.878A1.381 1.381 0 0 0 0 37.23v22.062c0 .762.617 1.379 1.379 1.379h8.64c1.701 0 3.152-1.084 3.776-2.605 3.086 1.472 17.366 8.12 23.435 8.12 5.348 0 16.356-5.412 23.64-8.992 1.901-.935 3.473-1.708 4.492-2.155.501-.22.824-.716.824-1.263 0-2.622-2.238-4.581-5.656-5.248z" mask="url(#b)"/>
    </g>
</svg>
