<svg xmlns="http://www.w3.org/2000/svg" xmlns:xlink="http://www.w3.org/1999/xlink" width="19" height="19" viewBox="0 0 19 19">
    <defs>
        <path id="a" d="M9.325.033H0V18.67h18.65V.033z"/>
    </defs>
    <g fill="none" fill-rule="evenodd" opacity=".5">
        <mask id="b" fill="#fff">
            <use xlink:href="#a"/>
        </mask>
        <path fill="#FFF" d="M18.64 14.741a.902.902 0 0 1-.276.79l-2.626 2.606a1.48 1.48 0 0 1-.464.336 1.92 1.92 0 0 1-.562.177c-.013 0-.053.004-.119.01-.066.007-.151.01-.256.01-.25 0-.655-.043-1.215-.128-.56-.086-1.244-.296-2.053-.632-.81-.336-1.727-.84-2.754-1.51-1.027-.671-2.12-1.593-3.277-2.764-.922-.908-1.685-1.777-2.29-2.606a18.561 18.561 0 0 1-1.461-2.3 12.368 12.368 0 0 1-.83-1.915 10.156 10.156 0 0 1-.375-1.481c-.066-.415-.092-.74-.079-.977.013-.237.02-.369.02-.395.026-.185.086-.372.178-.563.092-.19.204-.345.335-.464L3.162.31a.87.87 0 0 1 .632-.276c.171 0 .322.05.454.148.132.099.243.22.336.365l2.112 4.008c.118.21.151.441.099.691a1.23 1.23 0 0 1-.336.632l-.967.967a.33.33 0 0 0-.07.129.489.489 0 0 0-.029.148c.053.276.171.592.355.947.158.316.402.701.731 1.155.329.454.796.978 1.402 1.57.592.605 1.118 1.076 1.58 1.411.46.336.845.583 1.154.74.31.159.546.254.71.287l.247.05c.027 0 .07-.01.129-.03a.328.328 0 0 0 .128-.07l1.125-1.144a1.21 1.21 0 0 1 .83-.316c.223 0 .401.04.533.118h.02l3.81 2.25c.276.172.44.389.494.652z" mask="url(#b)"/>
    </g>
</svg>
