<svg xmlns="http://www.w3.org/2000/svg" xmlns:xlink="http://www.w3.org/1999/xlink" width="34" height="43" viewBox="0 0 34 43">
    <defs>
        <path id="a" d="M33.75 42.964V.017H0v42.947z"/>
    </defs>
    <g fill="none" fill-rule="evenodd">
        <g transform="translate(.243 .036)">
            <mask id="b" fill="#fff">
                <use xlink:href="#a"/>
            </mask>
            <path fill="#fff" d="M33.75 11.297a.521.521 0 0 0-.008-.057c-.002-.006-.002-.013-.003-.02-.004-.022-.01-.044-.017-.066l-.002-.008a.693.693 0 0 0-.023-.065l-.003-.009a.757.757 0 0 0-.028-.058l-.005-.011-.031-.052-.01-.015a.393.393 0 0 0-.032-.044l-.014-.018c-.013-.017-.028-.033-.044-.05l-.007-.008L22.955.25a.93.93 0 0 0-.058-.052l-.013-.01a1.051 1.051 0 0 0-.049-.036l-.012-.008a.83.83 0 0 0-.055-.032L22.76.107a.624.624 0 0 0-.062-.03h-.004a.607.607 0 0 0-.069-.026h-.003a.618.618 0 0 0-.072-.019l-.01-.001a.664.664 0 0 0-.067-.01c-.014-.002-.03-.002-.044-.003l-.034-.001H.793A.792.792 0 0 0 0 .809v41.362c0 .438.355.793.793.793h32.17a.792.792 0 0 0 .792-.793V11.376l-.001-.002c0-.026 0-.051-.004-.077zm-2.701-.713l-7.861.001-.001-7.862 7.862 7.861zm1.12 30.796H1.585V1.602h20.017v9.776a.792.792 0 0 0 .793.792h9.774v29.21z" mask="url(#b)"/>
        </g>
        <path fill="#fff" d="M11.826 11.147a3.3 3.3 0 0 0 3.295-3.296 3.3 3.3 0 0 0-3.295-3.296A3.3 3.3 0 0 0 8.531 7.85a3.299 3.299 0 0 0 3.295 3.296zm0-5.007a1.712 1.712 0 0 1 0 3.422 1.712 1.712 0 0 1 0-3.422zM8.144 17.162a.793.793 0 0 0 .792-.792v-1.39c0-.9.732-1.63 1.63-1.63h2.54c.9 0 1.63.73 1.63 1.63v1.39a.793.793 0 0 0 1.586 0v-1.39a3.219 3.219 0 0 0-3.217-3.215h-2.538A3.219 3.219 0 0 0 7.35 14.98v1.39c.001.437.356.792.793.792zM7.352 22.755c0 .438.355.792.792.792h17.952a.792.792 0 1 0 0-1.584H8.144a.792.792 0 0 0-.792.792zM26.096 33.69H8.144a.792.792 0 0 0 0 1.585h17.952a.792.792 0 1 0 0-1.585zM26.096 27.826H8.144a.792.792 0 0 0 0 1.585h17.952a.793.793 0 0 0 0-1.585z"/>
    </g>
</svg>
