<svg xmlns="http://www.w3.org/2000/svg" xmlns:xlink="http://www.w3.org/1999/xlink" width="20" height="20" viewBox="0 0 20 20">
    <defs>
        <path id="a" d="M9.853.307H.046v19.66h19.615V.308z"/>
    </defs>
    <g fill="none" fill-rule="evenodd">
        <g>
            <mask id="b" fill="#fff">
                <use xlink:href="#a"/>
            </mask>
            <path fill="#656D74" d="M18.023 2.149h-2.664V.922a.615.615 0 0 0-1.23 0V2.15h-3.684V.922a.616.616 0 0 0-1.23 0V2.15H5.528V.922a.613.613 0 1 0-1.226 0V2.15H1.638A1.64 1.64 0 0 0 0 3.787v14.54a1.64 1.64 0 0 0 1.638 1.64h16.385a1.64 1.64 0 0 0 1.638-1.64V3.787a1.64 1.64 0 0 0-1.638-1.638zm.407 16.178c0 .228-.182.41-.407.41H1.638a.409.409 0 0 1-.408-.41V3.787c0-.225.183-.408.408-.408h2.664v1.23a.613.613 0 1 0 1.226 0V3.38h3.687v1.23c0 .339.276.611.615.611a.613.613 0 0 0 .615-.61V3.378h3.683v1.23c0 .339.277.611.616.611.339 0 .615-.272.615-.61V3.378h2.664c.225 0 .407.183.407.408v14.54z" mask="url(#b)"/>
        </g>
        <path fill="#656D74" d="M4.302 9.522h2.457V7.681H4.302zM4.302 12.594h2.457v-1.841H4.302zM4.302 15.666h2.457v-1.842H4.302zM8.6 15.666h2.457v-1.842H8.6zM8.6 12.594h2.457v-1.841H8.6zM8.6 9.522h2.457V7.681H8.6zM12.902 15.666h2.457v-1.842h-2.457zM12.902 12.594h2.457v-1.841h-2.457zM12.902 9.522h2.457V7.681h-2.457z"/>
    </g>
</svg>
