<svg xmlns="http://www.w3.org/2000/svg" xmlns:xlink="http://www.w3.org/1999/xlink" width="37" height="48" viewBox="0 0 37 48">
    <defs>
        <path id="a" d="M0 47.94V0h36.801v47.94z"/>
    </defs>
    <g fill="none" fill-rule="evenodd">
        <mask id="b" fill="#fff">
            <use xlink:href="#a"/>
        </mask>
        <path class='svg-detail' fill="#fff" d="M32.812 34.312l-7.644-3.82A2.11 2.11 0 0 1 24 28.598v-2.703c.184-.227.375-.481.574-.762a18.272 18.272 0 0 0 2.364-4.641 3.172 3.172 0 0 0 1.863-2.89v-3.204c0-.769-.289-1.515-.801-2.097V8.043c.043-.438.223-3.059-1.672-5.219C24.684.949 22.016 0 18.398 0c-3.617 0-6.281.949-7.925 2.824-1.895 2.16-1.719 4.781-1.672 5.219v4.258A3.184 3.184 0 0 0 8 14.398v3.204a3.17 3.17 0 0 0 1.199 2.484c.731 2.902 2.266 5.09 2.801 5.789v2.648c0 .774-.422 1.485-1.102 1.856l-7.136 3.894A7.211 7.211 0 0 0 0 40.609v2.59C0 46.996 12.035 48 18.398 48c6.368 0 18.403-1.004 18.403-4.801v-2.433a7.183 7.183 0 0 0-3.989-6.454zm2.387 8.887c0 1.086-5.929 3.199-16.801 3.199-10.867 0-16.796-2.113-16.796-3.199v-2.59a5.614 5.614 0 0 1 2.925-4.929l7.137-3.895a3.715 3.715 0 0 0 1.938-3.262v-3.214l-.188-.223c-.019-.024-1.98-2.395-2.726-5.652l-.075-.317-.273-.176c-.465-.3-.738-.8-.738-1.339v-3.204c0-.445.187-.867.535-1.179l.261-.239V8l-.003-.105c-.004-.02-.278-2.239 1.281-4.016 1.328-1.512 3.59-2.277 6.722-2.277 3.125 0 5.383.757 6.711 2.261 1.559 1.762 1.301 4.012 1.297 4.032l-.008 5.085.266.243c.344.308.535.73.535 1.175v3.204c0 .695-.457 1.308-1.137 1.519l-.398.121-.129.395a16.777 16.777 0 0 1-2.265 4.57 10.13 10.13 0 0 1-.672.863l-.2.227v3.301c0 1.418.79 2.691 2.055 3.324l7.641 3.82a5.581 5.581 0 0 1 3.105 5.024v2.433z" mask="url(#b)"/>
    </g>
</svg>
