<svg xmlns="http://www.w3.org/2000/svg" xmlns:xlink="http://www.w3.org/1999/xlink" width="18" height="18" viewBox="0 0 18 18">
    <defs>
        <path id="a" d="M.001 20.447h17.733V0H.001z"/>
    </defs>
    <g fill="none" fill-rule="evenodd" opacity=".5">
        <mask id="b" fill="#fff">
            <use xlink:href="#a"/>
        </mask>
        <path fill="#FFF" d="M9.015 0C4.208 0 .297 3.911.297 8.72a8.71 8.71 0 0 0 1.151 4.329L.017 17.344a.296.296 0 0 0 .355.38L5.06 16.49c1.22.62 2.584.948 3.955.948 4.808 0 8.72-3.911 8.72-8.718 0-4.809-3.912-8.72-8.72-8.72zm5.44 12.678l-.519.52c-.655.656-1.388.988-2.175.988-1.06 0-2.205-.604-3.4-1.8L5.349 9.374c-.942-.942-1.523-1.857-1.722-2.72-.242-1.05.064-2.009.91-2.855l.52-.52a1.12 1.12 0 0 1 1.294-.194c.786.416 1.601 1.78 1.691 1.935.165.286.214.58.143.835a.772.772 0 0 1-.35.458c-.239.2-.519.45-.57.511-.3.443-.265.784.122 1.17l2.354 2.355c.39.39.724.422 1.174.118a8.34 8.34 0 0 0 .508-.566.774.774 0 0 1 .69-.382c.195 0 .403.059.6.172.156.092 1.522.907 1.937 1.694.229.43.15.95-.195 1.294z" mask="url(#b)"/>
    </g>
</svg>
